<svg width="1920" height="955" xmlns="http://www.w3.org/2000/svg"><g><path d="M-46,-35L-77,545L-56,370Z" fill="#e87661" stroke="#e87661"/><path d="M-46,-35L-56,370L-43,80Z" fill="#e95338" stroke="#e95338"/><path d="M-46,-35L-43,80L38,113Z" fill="#ea3229" stroke="#ea3229"/><path d="M-46,-35L38,113L97,-78Z" fill="#ed2422" stroke="#ed2422"/><path d="M97,-78L38,113L217,62Z" fill="#f14431" stroke="#f14431"/><path d="M97,-78L217,62L250,-63Z" fill="#f5372b" stroke="#f5372b"/><path d="M97,-78L250,-63L584,-112Z" fill="#fb492a" stroke="#fb492a"/><path d="M250,-63L217,62L357,-25Z" fill="#f95036" stroke="#f95036"/><path d="M250,-63L357,-25L584,-112Z" fill="#fe5936" stroke="#fe5936"/><path d="M357,-25L217,62L354,96Z" fill="#fb6e45" stroke="#fb6e45"/><path d="M357,-25L354,96L493,113Z" fill="#fe8651" stroke="#fe8651"/><path d="M357,-25L493,113L584,-112Z" fill="#fe6f4c" stroke="#fe6f4c"/><path d="M584,-112L493,113L650,39Z" fill="#ff835d" stroke="#ff835d"/><path d="M584,-112L650,39L660,-23Z" fill="#ff745a" stroke="#ff745a"/><path d="M584,-112L660,-23L835,-58Z" fill="#ff785b" stroke="#ff785b"/><path d="M584,-112L835,-58L1002,-76Z" fill="#fb7e62" stroke="#fb7e62"/><path d="M584,-112L1002,-76L1297,-108Z" fill="#ea766a" stroke="#ea766a"/><path d="M660,-23L650,39L796,62Z" fill="#ff966f" stroke="#ff966f"/><path d="M660,-23L796,62L835,-58Z" fill="#ff8e6f" stroke="#ff8e6f"/><path d="M835,-58L796,62L964,133Z" fill="#f5a180" stroke="#f5a180"/><path d="M835,-58L964,133L1002,-76Z" fill="#ed897a" stroke="#ed897a"/><path d="M1002,-76L964,133L1134,124Z" fill="#e29f8c" stroke="#e29f8c"/><path d="M1002,-76L1134,124L1170,-78Z" fill="#db7c82" stroke="#db7c82"/><path d="M1002,-76L1170,-78L1297,-108Z" fill="#d56c74" stroke="#d56c74"/><path d="M1170,-78L1134,124L1233,107Z" fill="#d1928f" stroke="#d1928f"/><path d="M1170,-78L1233,107L1297,-108Z" fill="#c8687b" stroke="#c8687b"/><path d="M1297,-108L1233,107L1386,23Z" fill="#bc6f7e" stroke="#bc6f7e"/><path d="M1297,-108L1386,23L1383,-104Z" fill="#b4546c" stroke="#b4546c"/><path d="M1383,-104L1386,23L1531,21Z" fill="#a75370" stroke="#a75370"/><path d="M1383,-104L1531,21L1612,-42Z" fill="#9a4166" stroke="#9a4166"/><path d="M1383,-104L1612,-42L1748,-63Z" fill="#8e385b" stroke="#8e385b"/><path d="M1383,-104L1748,-63L1827,-63Z" fill="#822f55" stroke="#822f55"/><path d="M1612,-42L1531,21L1701,132Z" fill="#89566f" stroke="#89566f"/><path d="M1612,-42L1701,132L1748,-63Z" fill="#804165" stroke="#804165"/><path d="M1748,-63L1701,132L1827,-63Z" fill="#80355e" stroke="#80355e"/><path d="M1827,-63L1701,132L1907,17Z" fill="#803b60" stroke="#803b60"/><path d="M1827,-63L1907,17L2084,-36Z" fill="#80114c" stroke="#80114c"/><path d="M2084,-36L1907,17L2063,59Z" fill="#801a50" stroke="#801a50"/><path d="M2084,-36L2063,59L2064,676Z" fill="#806d7e" stroke="#806d7e"/><path d="M2084,-36L2064,676L2081,1129Z" fill="#607bb5" stroke="#607bb5"/><path d="M-43,80L-56,370L-18,248Z" fill="#e97251" stroke="#e97251"/><path d="M-43,80L-18,248L44,200Z" fill="#eb6c44" stroke="#eb6c44"/><path d="M-43,80L44,200L38,113Z" fill="#ec5c3c" stroke="#ec5c3c"/><path d="M38,113L44,200L217,62Z" fill="#f06a43" stroke="#f06a43"/><path d="M217,62L44,200L260,176Z" fill="#f4814e" stroke="#f4814e"/><path d="M217,62L260,176L354,96Z" fill="#f98650" stroke="#f98650"/><path d="M354,96L260,176L361,208Z" fill="#fba55e" stroke="#fba55e"/><path d="M354,96L361,208L493,113Z" fill="#fea962" stroke="#fea962"/><path d="M493,113L361,208L468,254Z" fill="#fec571" stroke="#fec571"/><path d="M493,113L468,254L661,191Z" fill="#ffcd7c" stroke="#ffcd7c"/><path d="M493,113L661,191L650,39Z" fill="#ffb375" stroke="#ffb375"/><path d="M650,39L661,191L796,62Z" fill="#ffb67e" stroke="#ffb67e"/><path d="M796,62L661,191L794,267Z" fill="#ffdd94" stroke="#ffdd94"/><path d="M796,62L794,267L937,223Z" fill="#f7e19c" stroke="#f7e19c"/><path d="M796,62L937,223L964,133Z" fill="#f1c995" stroke="#f1c995"/><path d="M964,133L937,223L1077,234Z" fill="#e7dda7" stroke="#e7dda7"/><path d="M964,133L1077,234L1134,124Z" fill="#dfcca4" stroke="#dfcca4"/><path d="M1134,124L1077,234L1249,247Z" fill="#d5d6b1" stroke="#d5d6b1"/><path d="M1134,124L1249,247L1233,107Z" fill="#ccbfa4" stroke="#ccbfa4"/><path d="M1233,107L1249,247L1403,225Z" fill="#bec3a5" stroke="#bec3a5"/><path d="M1233,107L1403,225L1386,23Z" fill="#b69d93" stroke="#b69d93"/><path d="M1386,23L1403,225L1531,21Z" fill="#a68486" stroke="#a68486"/><path d="M1531,21L1403,225L1523,233Z" fill="#9e9d92" stroke="#9e9d92"/><path d="M1531,21L1523,233L1701,132Z" fill="#8e8384" stroke="#8e8384"/><path d="M1701,132L1523,233L1740,266Z" fill="#829992" stroke="#829992"/><path d="M1701,132L1740,266L1840,211Z" fill="#808b89" stroke="#808b89"/><path d="M1701,132L1840,211L1907,17Z" fill="#806373" stroke="#806373"/><path d="M1907,17L1840,211L1995,252Z" fill="#806975" stroke="#806975"/><path d="M1907,17L1995,252L2063,59Z" fill="#804966" stroke="#804966"/><path d="M2063,59L1995,252L2007,516Z" fill="#80748d" stroke="#80748d"/><path d="M2063,59L2007,516L2064,676Z" fill="#7b80ae" stroke="#7b80ae"/><path d="M-18,248L-56,370L125,402Z" fill="#ec8a75" stroke="#ec8a75"/><path d="M-18,248L125,402L166,352Z" fill="#f0987a" stroke="#f0987a"/><path d="M-18,248L166,352L44,200Z" fill="#ee8a64" stroke="#ee8a64"/><path d="M44,200L166,352L260,176Z" fill="#f39965" stroke="#f39965"/><path d="M260,176L166,352L361,383Z" fill="#f8b581" stroke="#f8b581"/><path d="M260,176L361,383L361,208Z" fill="#fbbc78" stroke="#fbbc78"/><path d="M361,208L361,383L468,254Z" fill="#fecc87" stroke="#fecc87"/><path d="M468,254L361,383L522,419Z" fill="#fedaa2" stroke="#fedaa2"/><path d="M468,254L522,419L684,399Z" fill="#ffe6b1" stroke="#ffe6b1"/><path d="M468,254L684,399L661,191Z" fill="#ffe1a0" stroke="#ffe1a0"/><path d="M661,191L684,399L794,267Z" fill="#ffedaf" stroke="#ffedaf"/><path d="M794,267L684,399L840,422Z" fill="#fffdcd" stroke="#fffdcd"/><path d="M794,267L840,422L956,407Z" fill="#f5f9d2" stroke="#f5f9d2"/><path d="M794,267L956,407L937,223Z" fill="#f1eec0" stroke="#f1eec0"/><path d="M937,223L956,407L1077,234Z" fill="#e7e8c2" stroke="#e7e8c2"/><path d="M1077,234L956,407L1106,343Z" fill="#e1ead1" stroke="#e1ead1"/><path d="M1077,234L1106,343L1249,247Z" fill="#d6dfc6" stroke="#d6dfc6"/><path d="M1249,247L1106,343L1247,434Z" fill="#cde1d8" stroke="#cde1d8"/><path d="M1249,247L1247,434L1403,225Z" fill="#bdd0c5" stroke="#bdd0c5"/><path d="M1403,225L1247,434L1475,360Z" fill="#b0cbcb" stroke="#b0cbcb"/><path d="M1403,225L1475,360L1523,233Z" fill="#a1b8b1" stroke="#a1b8b1"/><path d="M1523,233L1475,360L1619,345Z" fill="#95b4b9" stroke="#95b4b9"/><path d="M1523,233L1619,345L1740,266Z" fill="#87a6a9" stroke="#87a6a9"/><path d="M1740,266L1619,345L1729,435Z" fill="#80a6b9" stroke="#80a6b9"/><path d="M1740,266L1729,435L1889,355Z" fill="#809bb4" stroke="#809bb4"/><path d="M1740,266L1889,355L1840,211Z" fill="#808d9b" stroke="#808d9b"/><path d="M1840,211L1889,355L1995,252Z" fill="#808294" stroke="#808294"/><path d="M1995,252L1889,355L1967,374Z" fill="#8084a1" stroke="#8084a1"/><path d="M1995,252L1967,374L2007,516Z" fill="#8086af" stroke="#8086af"/><path d="M-56,370L-77,545L68,581Z" fill="#db8886" stroke="#db8886"/><path d="M-56,370L68,581L125,402Z" fill="#e59589" stroke="#e59589"/><path d="M125,402L68,581L254,489Z" fill="#e4a995" stroke="#e4a995"/><path d="M125,402L254,489L166,352Z" fill="#f0af93" stroke="#f0af93"/><path d="M166,352L254,489L361,383Z" fill="#f5bf9a" stroke="#f5bf9a"/><path d="M361,383L254,489L356,574Z" fill="#eecba4" stroke="#eecba4"/><path d="M361,383L356,574L522,419Z" fill="#f4daac" stroke="#f4daac"/><path d="M522,419L356,574L580,579Z" fill="#ece2b9" stroke="#ece2b9"/><path d="M522,419L580,579L672,528Z" fill="#eeedc5" stroke="#eeedc5"/><path d="M522,419L672,528L684,399Z" fill="#f6f0c5" stroke="#f6f0c5"/><path d="M684,399L672,528L791,517Z" fill="#f2fad2" stroke="#f2fad2"/><path d="M684,399L791,517L840,422Z" fill="#f6ffd6" stroke="#f6ffd6"/><path d="M840,422L791,517L922,470Z" fill="#ebfbdc" stroke="#ebfbdc"/><path d="M840,422L922,470L956,407Z" fill="#e9f8dd" stroke="#e9f8dd"/><path d="M956,407L922,470L1108,574Z" fill="#d9f4e5" stroke="#d9f4e5"/><path d="M956,407L1108,574L1106,343Z" fill="#d8f1e6" stroke="#d8f1e6"/><path d="M1106,343L1108,574L1247,434Z" fill="#ccecec" stroke="#ccecec"/><path d="M1247,434L1108,574L1314,507Z" fill="#b9e4eb" stroke="#b9e4eb"/><path d="M1247,434L1314,507L1475,360Z" fill="#aed5dd" stroke="#aed5dd"/><path d="M1475,360L1314,507L1521,539Z" fill="#9bc9da" stroke="#9bc9da"/><path d="M1475,360L1521,539L1619,345Z" fill="#91bdd0" stroke="#91bdd0"/><path d="M1619,345L1521,539L1682,524Z" fill="#7eb5cf" stroke="#7eb5cf"/><path d="M1619,345L1682,524L1729,435Z" fill="#79acc7" stroke="#79acc7"/><path d="M1729,435L1682,524L1926,583Z" fill="#6ea0c7" stroke="#6ea0c7"/><path d="M1729,435L1926,583L1889,355Z" fill="#7697be" stroke="#7697be"/><path d="M1889,355L1926,583L2007,516Z" fill="#728cba" stroke="#728cba"/><path d="M1889,355L2007,516L1967,374Z" fill="#7b8ab4" stroke="#7b8ab4"/><path d="M-77,545L-90,815L-67,719Z" fill="#9e5e7b" stroke="#9e5e7b"/><path d="M-77,545L-67,719L68,581Z" fill="#c07b87" stroke="#c07b87"/><path d="M68,581L-67,719L126,626Z" fill="#b8818b" stroke="#b8818b"/><path d="M68,581L126,626L254,489Z" fill="#daa99b" stroke="#daa99b"/><path d="M254,489L126,626L282,638Z" fill="#d8b4a1" stroke="#d8b4a1"/><path d="M254,489L282,638L356,574Z" fill="#e1c6a8" stroke="#e1c6a8"/><path d="M356,574L282,638L370,721Z" fill="#c6b9a5" stroke="#c6b9a5"/><path d="M356,574L370,721L553,678Z" fill="#c3c3ad" stroke="#c3c3ad"/><path d="M356,574L553,678L580,579Z" fill="#d6d8ba" stroke="#d6d8ba"/><path d="M580,579L553,678L694,676Z" fill="#c9dac5" stroke="#c9dac5"/><path d="M580,579L694,676L672,528Z" fill="#ddedcf" stroke="#ddedcf"/><path d="M672,528L694,676L791,517Z" fill="#e5fad9" stroke="#e5fad9"/><path d="M791,517L694,676L810,660Z" fill="#d4f2da" stroke="#d4f2da"/><path d="M791,517L810,660L955,628Z" fill="#d1f3e1" stroke="#d1f3e1"/><path d="M791,517L955,628L922,470Z" fill="#ddf9e3" stroke="#ddf9e3"/><path d="M922,470L955,628L1108,574Z" fill="#cff4eb" stroke="#cff4eb"/><path d="M1108,574L955,628L1075,661Z" fill="#b4e4e9" stroke="#b4e4e9"/><path d="M1108,574L1075,661L1270,652Z" fill="#a5dcef" stroke="#a5dcef"/><path d="M1108,574L1270,652L1314,507Z" fill="#ade1ef" stroke="#ade1ef"/><path d="M1314,507L1270,652L1367,584Z" fill="#9dd6e8" stroke="#9dd6e8"/><path d="M1314,507L1367,584L1521,539Z" fill="#97cee2" stroke="#97cee2"/><path d="M1367,584L1270,652L1369,616Z" fill="#8cc9e4" stroke="#8cc9e4"/><path d="M1367,584L1369,616L1521,539Z" fill="#8dcae2" stroke="#8dcae2"/><path d="M1521,539L1369,616L1592,670Z" fill="#75b8da" stroke="#75b8da"/><path d="M1521,539L1592,670L1682,524Z" fill="#70b4d6" stroke="#70b4d6"/><path d="M1682,524L1592,670L1680,687Z" fill="#54a0ce" stroke="#54a0ce"/><path d="M1682,524L1680,687L1915,639Z" fill="#5595c7" stroke="#5595c7"/><path d="M1682,524L1915,639L1926,583Z" fill="#6395c5" stroke="#6395c5"/><path d="M1926,583L1915,639L2064,676Z" fill="#4f77b8" stroke="#4f77b8"/><path d="M1926,583L2064,676L2007,516Z" fill="#5f7fba" stroke="#5f7fba"/><path d="M-67,719L-90,815L33,853Z" fill="#774574" stroke="#774574"/><path d="M-67,719L33,853L126,626Z" fill="#946581" stroke="#946581"/><path d="M126,626L33,853L174,792Z" fill="#8e6e85" stroke="#8e6e85"/><path d="M126,626L174,792L282,638Z" fill="#af9294" stroke="#af9294"/><path d="M282,638L174,792L370,721Z" fill="#a69998" stroke="#a69998"/><path d="M370,721L174,792L420,851Z" fill="#8c8e95" stroke="#8c8e95"/><path d="M370,721L420,851L517,816Z" fill="#8c9da1" stroke="#8c9da1"/><path d="M370,721L517,816L553,678Z" fill="#a3b2ac" stroke="#a3b2ac"/><path d="M553,678L517,816L638,811Z" fill="#98b3b3" stroke="#98b3b3"/><path d="M553,678L638,811L694,676Z" fill="#aac7bf" stroke="#aac7bf"/><path d="M694,676L638,811L832,817Z" fill="#98c3c6" stroke="#98c3c6"/><path d="M694,676L832,817L810,660Z" fill="#abd6d1" stroke="#abd6d1"/><path d="M810,660L832,817L927,837Z" fill="#8dc3d1" stroke="#8dc3d1"/><path d="M810,660L927,837L955,628Z" fill="#a2d2d9" stroke="#a2d2d9"/><path d="M955,628L927,837L1075,661Z" fill="#98cede" stroke="#98cede"/><path d="M1075,661L927,837L1029,922Z" fill="#6eb1d6" stroke="#6eb1d6"/><path d="M1075,661L1029,922L1180,827Z" fill="#67aeda" stroke="#67aeda"/><path d="M1075,661L1180,827L1270,652Z" fill="#80c2e5" stroke="#80c2e5"/><path d="M1270,652L1180,827L1278,838Z" fill="#5da9da" stroke="#5da9da"/><path d="M1270,652L1278,838L1389,772Z" fill="#59a6d8" stroke="#59a6d8"/><path d="M1270,652L1389,772L1369,616Z" fill="#72b6dd" stroke="#72b6dd"/><path d="M1369,616L1389,772L1592,670Z" fill="#5da8d5" stroke="#5da8d5"/><path d="M1592,670L1389,772L1597,834Z" fill="#348ac9" stroke="#348ac9"/><path d="M1592,670L1597,834L1674,803Z" fill="#207bc2" stroke="#207bc2"/><path d="M1592,670L1674,803L1680,687Z" fill="#2f86c5" stroke="#2f86c5"/><path d="M1680,687L1674,803L1817,833Z" fill="#166dba" stroke="#166dba"/><path d="M1680,687L1817,833L1915,639Z" fill="#2c73ba" stroke="#2c73ba"/><path d="M1915,639L1817,833L1968,875Z" fill="#1356ae" stroke="#1356ae"/><path d="M1915,639L1968,875L2064,676Z" fill="#285aae" stroke="#285aae"/><path d="M2064,676L1968,875L2040,918Z" fill="#033ba1" stroke="#033ba1"/><path d="M2064,676L2040,918L2081,1129Z" fill="#002196" stroke="#002196"/><path d="M-90,815L-104,1114L-58,957Z" fill="#681260" stroke="#681260"/><path d="M-90,815L-58,957L33,853Z" fill="#6a2f6c" stroke="#6a2f6c"/><path d="M33,853L-58,957L119,934Z" fill="#6d326f" stroke="#6d326f"/><path d="M33,853L119,934L174,792Z" fill="#71507b" stroke="#71507b"/><path d="M174,792L119,934L188,997Z" fill="#744d7b" stroke="#744d7b"/><path d="M174,792L188,997L349,987Z" fill="#775780" stroke="#775780"/><path d="M174,792L349,987L420,851Z" fill="#7b738c" stroke="#7b738c"/><path d="M420,851L349,987L539,1011Z" fill="#7f7291" stroke="#7f7291"/><path d="M420,851L539,1011L517,816Z" fill="#7f889d" stroke="#7f889d"/><path d="M517,816L539,1011L638,811Z" fill="#7f93a8" stroke="#7f93a8"/><path d="M638,811L539,1011L631,1031Z" fill="#7f83a6" stroke="#7f83a6"/><path d="M638,811L631,1031L811,964Z" fill="#8091b2" stroke="#8091b2"/><path d="M638,811L811,964L832,817Z" fill="#80acc1" stroke="#80acc1"/><path d="M832,817L811,964L927,837Z" fill="#76a6c6" stroke="#76a6c6"/><path d="M927,837L811,964L1029,922Z" fill="#6f99c6" stroke="#6f99c6"/><path d="M1180,827L1029,922L1084,1014Z" fill="#5c8ccf" stroke="#5c8ccf"/><path d="M1180,827L1084,1014L1317,950Z" fill="#4f82ce" stroke="#4f82ce"/><path d="M1180,827L1317,950L1278,838Z" fill="#448bd0" stroke="#448bd0"/><path d="M1278,838L1317,950L1389,772Z" fill="#3987cd" stroke="#3987cd"/><path d="M1389,772L1317,950L1415,978Z" fill="#3175c5" stroke="#3175c5"/><path d="M1389,772L1415,978L1597,834Z" fill="#2274c3" stroke="#2274c3"/><path d="M1597,834L1415,978L1594,945Z" fill="#165bb8" stroke="#165bb8"/><path d="M1597,834L1594,945L1674,803Z" fill="#0861b9" stroke="#0861b9"/><path d="M1674,803L1594,945L1739,1031Z" fill="#0049af" stroke="#0049af"/><path d="M1674,803L1739,1031L1817,833Z" fill="#004aad" stroke="#004aad"/><path d="M1817,833L1739,1031L1893,934Z" fill="#0035a4" stroke="#0035a4"/><path d="M1817,833L1893,934L1968,875Z" fill="#003ba5" stroke="#003ba5"/><path d="M1968,875L1893,934L2040,918Z" fill="#00299d" stroke="#00299d"/><path d="M-58,957L-104,1114L132,1139Z" fill="#6b0b5b" stroke="#6b0b5b"/><path d="M-58,957L132,1139L119,934Z" fill="#6f1d68" stroke="#6f1d68"/><path d="M119,934L132,1139L188,997Z" fill="#73296e" stroke="#73296e"/><path d="M188,997L132,1139L203,1121Z" fill="#742f6a" stroke="#742f6a"/><path d="M188,997L203,1121L349,987Z" fill="#783d76" stroke="#783d76"/><path d="M349,987L203,1121L386,1152Z" fill="#7b4977" stroke="#7b4977"/><path d="M349,987L386,1152L471,1126Z" fill="#7f597f" stroke="#7f597f"/><path d="M349,987L471,1126L539,1011Z" fill="#7f5f8a" stroke="#7f5f8a"/><path d="M539,1011L471,1126L631,1031Z" fill="#7f6894" stroke="#7f6894"/><path d="M631,1031L471,1126L687,1080Z" fill="#7f6e98" stroke="#7f6e98"/><path d="M631,1031L687,1080L811,964Z" fill="#807aab" stroke="#807aab"/><path d="M811,964L687,1080L790,1120Z" fill="#807faf" stroke="#807faf"/><path d="M811,964L790,1120L923,1115Z" fill="#787cb2" stroke="#787cb2"/><path d="M811,964L923,1115L1029,922Z" fill="#6f7fbd" stroke="#6f7fbd"/><path d="M1029,922L923,1115L1084,1014Z" fill="#6576c1" stroke="#6576c1"/><path d="M1084,1014L923,1115L1141,1131Z" fill="#6172bc" stroke="#6172bc"/><path d="M1084,1014L1141,1131L1233,1078Z" fill="#566dc2" stroke="#566dc2"/><path d="M1084,1014L1233,1078L1317,950Z" fill="#4c68c4" stroke="#4c68c4"/><path d="M1317,950L1233,1078L1411,1138Z" fill="#3a58b9" stroke="#3a58b9"/><path d="M1317,950L1411,1138L1415,978Z" fill="#3051b9" stroke="#3051b9"/><path d="M1415,978L1411,1138L1607,1083Z" fill="#2045ae" stroke="#2045ae"/><path d="M1415,978L1607,1083L1594,945Z" fill="#1643b0" stroke="#1643b0"/><path d="M1594,945L1607,1083L1739,1031Z" fill="#0431a7" stroke="#0431a7"/><path d="M1739,1031L1607,1083L1665,1151Z" fill="#002d9e" stroke="#002d9e"/><path d="M1739,1031L1665,1151L1873,1169Z" fill="#002296" stroke="#002296"/><path d="M1739,1031L1873,1169L1893,934Z" fill="#001998" stroke="#001998"/><path d="M1893,934L1873,1169L2081,1129Z" fill="#000b8d" stroke="#000b8d"/><path d="M1893,934L2081,1129L2040,918Z" fill="#000d92" stroke="#000d92"/><path d="M132,1139L386,1152L203,1121Z" fill="#783b6b" stroke="#783b6b"/><path d="M386,1152L1873,1169L1141,1131Z" fill="#586eba" stroke="#586eba"/><path d="M386,1152L1141,1131L790,1120Z" fill="#7f80a7" stroke="#7f80a7"/><path d="M386,1152L790,1120L471,1126Z" fill="#7f698d" stroke="#7f698d"/><path d="M471,1126L790,1120L687,1080Z" fill="#7f739b" stroke="#7f739b"/><path d="M790,1120L1141,1131L923,1115Z" fill="#6c77b3" stroke="#6c77b3"/><path d="M1141,1131L1873,1169L1411,1138Z" fill="#2045a6" stroke="#2045a6"/><path d="M1141,1131L1411,1138L1233,1078Z" fill="#445fb7" stroke="#445fb7"/><path d="M1411,1138L1873,1169L1665,1151Z" fill="#03309a" stroke="#03309a"/><path d="M1411,1138L1665,1151L1607,1083Z" fill="#123ba2" stroke="#123ba2"/></g></svg>